<?xml version="1.0" encoding="UTF-8"?>
<svg width="22px" height="20px" viewBox="0 0 22 20" version="1.1" xmlns="http://www.w3.org/2000/svg" xmlns:xlink="http://www.w3.org/1999/xlink">
    <!-- Generator: Sketch 47.1 (45422) - http://www.bohemiancoding.com/sketch -->
    <title>Icon /  Editor / Article </title>
    <desc>Created with Sketch.</desc>
    <defs></defs>
    <g id="Icon-图标" stroke="none" stroke-width="1" fill="none" fill-rule="evenodd">
        <g id="Artboard" transform="translate(-96.000000, -451.000000)" fill="#9A9A9A">
            <g id="Icon-/--Editor-/-Article-Copy-2" transform="translate(97.000000, 454.000000)">
                <path d="M1.5,0 L18.5,0 C19.3284271,-1.52179594e-16 20,0.671572875 20,1.5 L20,13.5 C20,14.3284271 19.3284271,15 18.5,15 L1.5,15 L1.5,15 C0.671572875,15 1.01453063e-16,14.3284271 0,13.5 L0,1.5 L0,1.5 C-1.01453063e-16,0.671572875 0.671572875,-5.13954221e-16 1.5,-6.66133815e-16 L1.5,0 Z M1,1 L1,14 L19,14 L19,1 L1,1 Z M3,2 L17,2 L17,9 L3,9 L3,2 Z M4,3 L4,8 L16,8 L16,3 L4,3 Z M3,10 L17,10 L17,11 L3,11 L3,10 Z M3,12 L12,12 L12,13 L3,13 L3,12 Z" id="Combined-Shape"></path>
            </g>
        </g>
    </g>
</svg>